<?xml version="1.0" encoding="UTF-8"?>
<svg xmlns="http://www.w3.org/2000/svg" version="1.1" xmlns:xlink="http://www.w3.org/1999/xlink" viewBox="0 0 64 64">
  <defs>
    <style>
      .cls-1 {
        fill: url(#Dégradé_sans_nom_68-6);
      }

      .cls-2 {
        fill: url(#Dégradé_sans_nom_68);
      }

      .cls-3 {
        fill: url(#Dégradé_sans_nom_68-2);
      }

      .cls-4 {
        fill: #a1afa9;
      }

      .cls-5 {
        fill: url(#Dégradé_sans_nom_68-3);
      }

      .cls-6 {
        fill: url(#Dégradé_sans_nom_68-4);
      }

      .cls-7 {
        fill: url(#Dégradé_sans_nom_68-5);
      }

      .cls-8 {
        fill: url(#Dégradé_sans_nom_74);
      }

      .cls-9 {
        fill: url(#Dégradé_sans_nom_74-2);
      }

      .cls-10 {
        fill: url(#Dégradé_sans_nom_74-3);
      }
    </style>
    <linearGradient id="Dégradé_sans_nom_68" data-name="Dégradé sans nom 68" x1="-465.1" y1="95.4" x2="-464.3" y2="96.1" gradientTransform="translate(3726 -758) scale(8)" gradientUnits="userSpaceOnUse">
      <stop offset=".5" stop-color="#41b883"/>
      <stop offset=".5" stop-color="#34495e"/>
    </linearGradient>
    <linearGradient id="Dégradé_sans_nom_68-2" data-name="Dégradé sans nom 68" x1="-463.9" y1="95.6" x2="-463.3" y2="96.2" gradientTransform="translate(3738 -758) scale(8)" xlink:href="#Dégradé_sans_nom_68"/>
    <linearGradient id="Dégradé_sans_nom_68-3" data-name="Dégradé sans nom 68" x1="-464.8" y1="96.5" x2="-464.3" y2="97.1" gradientTransform="translate(3726 -746) scale(8)" xlink:href="#Dégradé_sans_nom_68"/>
    <linearGradient id="Dégradé_sans_nom_74" data-name="Dégradé sans nom 74" x1="-462.9" y1="95.7" x2="-462.1" y2="96.5" gradientTransform="translate(3750 -758) scale(8)" gradientUnits="userSpaceOnUse">
      <stop offset=".7" stop-color="#41b883"/>
      <stop offset=".7" stop-color="#34495e"/>
    </linearGradient>
    <linearGradient id="Dégradé_sans_nom_74-2" data-name="Dégradé sans nom 74" x1="-463.8" y1="96.6" x2="-463" y2="97.4" gradientTransform="translate(3738 -746) scale(8)" xlink:href="#Dégradé_sans_nom_74"/>
    <linearGradient id="Dégradé_sans_nom_74-3" data-name="Dégradé sans nom 74" x1="-464.7" y1="97.6" x2="-463.9" y2="98.4" gradientTransform="translate(3726 -734) scale(8)" xlink:href="#Dégradé_sans_nom_74"/>
    <linearGradient id="Dégradé_sans_nom_68-4" data-name="Dégradé sans nom 68" x1="-462.5" y1="97" x2="-461.8" y2="97.7" gradientTransform="translate(3750 -746) scale(8)" xlink:href="#Dégradé_sans_nom_68"/>
    <linearGradient id="Dégradé_sans_nom_68-5" data-name="Dégradé sans nom 68" x1="-463.4" y1="97.9" x2="-462.7" y2="98.6" gradientTransform="translate(3738 -734) scale(8)" xlink:href="#Dégradé_sans_nom_68"/>
    <linearGradient id="Dégradé_sans_nom_68-6" data-name="Dégradé sans nom 68" x1="-462.4" y1="98.1" x2="-461.6" y2="98.8" gradientTransform="translate(3750 -734) scale(8)" xlink:href="#Dégradé_sans_nom_68"/>
  </defs>
  <!-- Generator: Adobe Illustrator 28.7.1, SVG Export Plug-In . SVG Version: 1.2.0 Build 142)  -->
  <g>
    <g id="Calque_1">
      <g>
        <rect class="cls-4" x="11.1" y="38.6" width="3.7" height="5.1"/>
        <rect class="cls-4" x="11.1" y="19.3" width="3.7" height="5.1"/>
        <rect class="cls-4" x="30.2" y="38.6" width="3.7" height="5.1"/>
        <rect class="cls-4" x="30.2" y="19.3" width="3.7" height="5.1"/>
        <rect class="cls-4" x="49.5" y="19.3" width="3.7" height="5.1"/>
        <rect class="cls-4" x="49.5" y="38.6" width="3.7" height="5.1"/>
        <rect class="cls-4" x="19.8" y="10.2" width="5.1" height="3.4"/>
        <rect class="cls-4" x="39.1" y="10.2" width="5.1" height="3.4"/>
        <rect class="cls-4" x="19.8" y="29.7" width="5.1" height="3.4"/>
      </g>
      <g>
        <path class="cls-2" d="M5.6,5.1h14.2v14.2H5.6V5.1Z"/>
        <path class="cls-3" d="M24.9,5.1h14.2v14.2h-14.2s0-14.2,0-14.2Z"/>
        <path class="cls-5" d="M5.6,24.4h14.2v14.2H5.6s0-14.2,0-14.2Z"/>
        <path class="cls-8" d="M44.2,5.1h14.2v14.2h-14.2V5.1Z"/>
        <path class="cls-9" d="M24.9,24.4h14.2v14.2h-14.2s0-14.2,0-14.2Z"/>
        <path class="cls-10" d="M5.6,43.7h14.2v14.2H5.6v-14.2Z"/>
        <path class="cls-6" d="M44.2,24.4h14.2v14.2h-14.2s0-14.2,0-14.2Z"/>
        <path class="cls-7" d="M24.9,43.7h14.2v14.2h-14.2s0-14.2,0-14.2Z"/>
        <path class="cls-1" d="M44.2,43.7h14.2v14.2h-14.2v-14.2Z"/>
      </g>
    </g>
  </g>
</svg>